<svg width="36" height="35" viewBox="0 0 36 35" fill="none" xmlns="http://www.w3.org/2000/svg"><g id="add_to_playlist_pmftupht1zcd 1" clip-path="url(#clip0_1350_43)"><path id="Vector" d="M34.6431 2.03133C34.6431 2.37667 34.523 2.70786 34.3094 2.95204C34.0957 3.19623 33.8059 3.33341 33.5037 3.33341H1.6027C1.30053 3.33341 1.01074 3.19623 0.797079 2.95204C0.583415 2.70786 0.463379 2.37667 0.463379 2.03133C0.463379 1.686 0.583415 1.35481 0.797079 1.11062C1.01074 0.866432 1.30053 0.729248 1.6027 0.729248H33.5037C33.8059 0.729248 34.0957 0.866432 34.3094 1.11062C34.523 1.35481 34.6431 1.686 34.6431 2.03133ZM33.5037 13.7501H1.6027C1.30053 13.7501 1.01074 13.8873 0.797079 14.1315C0.583415 14.3756 0.463379 14.7068 0.463379 15.0522C0.463379 15.3975 0.583415 15.7287 0.797079 15.9729C1.01074 16.2171 1.30053 16.3542 1.6027 16.3542H33.5037C33.8059 16.3542 34.0957 16.2171 34.3094 15.9729C34.523 15.7287 34.6431 15.3975 34.6431 15.0522C34.6431 14.7068 34.523 14.3756 34.3094 14.1315C34.0957 13.8873 33.8059 13.7501 33.5037 13.7501ZM17.5532 26.7709H1.6027C1.30053 26.7709 1.01074 26.9081 0.797079 27.1523C0.583415 27.3965 0.463379 27.7277 0.463379 28.073C0.463379 28.4183 0.583415 28.7495 0.797079 28.9937C1.01074 29.2379 1.30053 29.3751 1.6027 29.3751H17.5532C17.8554 29.3751 18.1452 29.2379 18.3588 28.9937C18.5725 28.7495 18.6925 28.4183 18.6925 28.073C18.6925 27.7277 18.5725 27.3965 18.3588 27.1523C18.1452 26.9081 17.8554 26.7709 17.5532 26.7709ZM33.5037 26.7709H30.0858V22.8647C30.0858 22.5193 29.9657 22.1881 29.7521 21.944C29.5384 21.6998 29.2486 21.5626 28.9465 21.5626C28.6443 21.5626 28.3545 21.6998 28.1408 21.944C27.9272 22.1881 27.8071 22.5193 27.8071 22.8647V26.7709H24.3892C24.087 26.7709 23.7972 26.9081 23.5835 27.1523C23.3699 27.3965 23.2498 27.7277 23.2498 28.073C23.2498 28.4183 23.3699 28.7495 23.5835 28.9937C23.7972 29.2379 24.087 29.3751 24.3892 29.3751H27.8071V33.2813C27.8071 33.6267 27.9272 33.9579 28.1408 34.202C28.3545 34.4462 28.6443 34.5834 28.9465 34.5834C29.2486 34.5834 29.5384 34.4462 29.7521 34.202C29.9657 33.9579 30.0858 33.6267 30.0858 33.2813V29.3751H33.5037C33.8059 29.3751 34.0957 29.2379 34.3094 28.9937C34.523 28.7495 34.6431 28.4183 34.6431 28.073C34.6431 27.7277 34.523 27.3965 34.3094 27.1523C34.0957 26.9081 33.8059 26.7709 33.5037 26.7709Z" fill="white"/></g><defs><clipPath id="clip0_1350_43"><rect width="35" height="35" fill="white" transform="translate(0.0078125)"/></clipPath></defs></svg>
