<!-- icon666.com - MILLIONS vector ICONS FREE --><svg version="1.1" id="Layer_1" xmlns="http://www.w3.org/2000/svg" xmlns:xlink="http://www.w3.org/1999/xlink" x="0px" y="0px" viewBox="0 0 512 512" style="enable-background:new 0 0 512 512;" xml:space="preserve"><g><g><path d="M225,0C150.561,0,90,60.561,90,135s60.561,135,135,135s135-60.561,135-135S299.439,0,225,0z M225,240 c-57.897,0-105-47.103-105-105c0-57.897,47.103-105,105-105c57.897,0,105,47.103,105,105C330,192.897,282.897,240,225,240z"></path></g></g><g><g><path d="M407,302c-23.388,0-45.011,7.689-62.483,20.667C315.766,308.001,284.344,300,255,300h-60 c-52.009,0-101.006,20.667-137.966,58.195C20.255,395.539,0,444.834,0,497c0,8.284,6.716,15,15,15h392 c57.897,0,105-47.103,105-105C512,349.103,464.897,302,407,302z M30.66,482c7.515-85.086,78.351-152,164.34-152h60 c21.784,0,45.088,5.346,67.152,15.224C309.487,362.57,302,383.926,302,407c0,29.354,12.113,55.927,31.596,75H30.66z M407,482 c-41.355,0-75-33.645-75-75c0-21.876,9.418-41.591,24.409-55.313c0.052-0.048,0.103-0.098,0.154-0.147 C369.893,339.407,387.597,332,407,332c41.355,0,75,33.645,75,75C482,448.355,448.355,482,407,482z"></path></g></g><g><g><path d="M437,392h-15v-15c0-8.284-6.716-15-15-15s-15,6.716-15,15v15h-15c-8.284,0-15,6.716-15,15s6.716,15,15,15h15v15 c0,8.284,6.716,15,15,15s15-6.716,15-15v-15h15c8.284,0,15-6.716,15-15S445.284,392,437,392z"></path></g></g></svg>