<svg version="1.0" xmlns="http://www.w3.org/2000/svg" width="512.000000pt" height="512.000000pt" viewBox="0 0 512.000000 512.000000" preserveAspectRatio="xMidYMid meet"><g transform="translate(0.000000,512.000000) scale(0.100000,-0.100000)" fill="#000000" stroke="none"><path d="M3776 5095 c-476 -90 -815 -475 -842 -955 -16 -273 92 -564 276 -745 51 -50 60 -65 38 -65 -24 0 -240 -110 -324 -165 -47 -30 -88 -55 -92 -55 -4 0 -26 37 -49 83 -117 229 -348 422 -598 500 -217 68 -457 60 -675 -22 -244 -92 -470 -314 -572 -563 -112 -275 -100 -579 34 -843 52 -103 86 -151 160 -230 l59 -64 -36 -16 c-21 -8 -39 -15 -42 -15 -2 0 -54 -25 -116 -56 -453 -227 -803 -623 -957 -1082 -58 -174 -49 -329 27 -482 47 -93 160 -211 248 -257 127 -66 70 -63 1128 -63 l959 0 39 22 c21 12 51 39 66 61 24 34 28 50 28 108 0 59 -4 73 -30 110 -16 23 -50 53 -74 66 l-44 23 -911 0 c-867 0 -913 1 -952 19 -50 23 -81 53 -105 106 -23 49 -24 90 -3 152 122 365 402 681 759 858 203 100 378 149 590 163 337 24 626 -50 934 -237 91 -55 131 -67 189 -56 153 27 214 223 104 333 -47 46 -224 151 -334 199 -46 19 -85 37 -87 39 -2 2 23 32 56 67 137 143 229 333 262 544 9 55 14 66 56 105 121 112 328 235 490 292 196 69 344 91 569 83 288 -10 500 -75 750 -229 85 -53 108 -63 155 -66 184 -12 280 216 145 342 -44 40 -178 120 -300 178 -60 28 -111 53 -113 54 -2 2 23 32 56 66 126 133 205 282 249 474 28 117 26 330 -4 447 -93 373 -374 659 -741 754 -123 32 -309 39 -425 18z m302 -400 c347 -82 558 -416 472 -749 -62 -244 -250 -421 -494 -465 -261 -48 -537 91 -655 330 -85 172 -92 335 -24 509 109 276 419 441 701 375z m-2063 -1370 c224 -47 422 -246 470 -471 68 -319 -123 -635 -440 -730 -82 -25 -248 -25 -330 0 -282 84 -470 349 -451 634 21 326 287 578 611 581 39 0 102 -6 140 -14z"/><path d="M4109 1881 c-44 -14 -80 -43 -108 -85 l-26 -41 -3 -307 -3 -307 -308-3 -308 -3 -40 -27 c-53 -35 -83 -85 -90 -150 -4 -45 -1 -61 24 -108 23 -44 39 -60 82 -82 l53 -28 294 0 294 0 0 -293 0 -293 26 -52 c36 -72 87 -102 174 -102 87 0 138 30 174 102 l26 52 0 293 0 293 294 0 294 0 53 28 c43 22 59 38 82 82 25 47 28 63 23 109 -6 69 -45 126 -105 158 -43 23 -49 23 -342 23 l-298 0 -3 308 c-3 303 -3 307 -27 345 -34 55 -88 87 -152 92 -30 3 -66 1 -80 -4z"/></g></svg>
