<!-- icon666.com - MILLIONS vector ICONS FREE --><svg viewBox="0 0 512 511" xmlns="http://www.w3.org/2000/svg"><path d="m256 287.5c-24.8125 0-45-20.1875-45-45s20.1875-45 45-45 45 20.1875 45 45-20.1875 45-45 45zm0-60c-8.269531 0-15 6.730469-15 15s6.730469 15 15 15 15-6.730469 15-15-6.730469-15-15-15zm0 0"></path><path d="m136 287.5c-24.8125 0-45-20.1875-45-45s20.1875-45 45-45 45 20.1875 45 45-20.1875 45-45 45zm0-60c-8.269531 0-15 6.730469-15 15s6.730469 15 15 15 15-6.730469 15-15-6.730469-15-15-15zm0 0"></path><path d="m376 287.5c-24.8125 0-45-20.1875-45-45s20.1875-45 45-45 45 20.1875 45 45-20.1875 45-45 45zm0-60c-8.269531 0-15 6.730469-15 15s6.730469 15 15 15 15-6.730469 15-15-6.730469-15-15-15zm0 0"></path><path d="m90 512.476562v-87.492187c-57.296875-45.929687-90-112.390625-90-183.484375 0-128.886719 110.191406-241 256-241 144.390625 0 256 110.632812 256 241 0 128.886719-110.191406 241-256 241-23.585938 0-46.902344-3.011719-69.398438-8.960938zm166-481.976562c-124.617188 0-226 94.652344-226 211 0 111.9375 88.179688 166.5625 90 168.679688v57.859374l64.859375-26.144531c3.296875.71875 31.210937 10.605469 71.140625 10.605469 124.617188 0 226-94.652344 226-211s-101.382812-211-226-211zm0 0"></path></svg>