<svg id="vector-layer" preserveAspectRatio="none" width="1324px" height="931px" viewBox="0 0 1324 931"><g transform="matrix(0.09187, 0, 0, -0.09187, 9.625427, 487.643097)" fill="#000000" stroke="none" style=""><path d="M2370 5105 c-407 -57 -759 -292 -979 -654 -154 -254 -220 -581 -175 -878 50 -342 219 -644 479 -860 45 -37 48 -42 30 -49 -178 -62 -397 -167 -548 -262 -149 -93 -273 -191 -415 -328 -353 -338 -598 -757 -724 -1238 -26 -100 -32 -140 -32 -231 0 -95 4 -121 28 -190 65 -187 203 -324 391 -387 l70 -23 1321 0 1320 0 41 27 c62 41 88 90 88 168 0 78 -26 127 -88 168 l-41 27 -1295 5 c-1195 5 -1298 6 -1327 22 -65 35 -114 115 -114 186 0 35 47 214 86 327 70 202 214 461 353 635 133 166 330 345 511 464 356 234 720 349 1150 363 333 11 628 -47 974 -192 71 -30 98 -36 132 -32 127 14 212 140 173 258 -28 83 -86 122 -294 199 -49 19 -94 37 -98 40 -4 4 18 28 50 54 32 27 91 84 131 129 484 535 463 1356 -48 1867 -303 303 -726 444 -1150 385z m373 -406 c193 -39 354 -125 493 -263 139 -140 224 -299 264 -496 74 -359 -88 -759 -392 -968 -281 -193 -648 -223 -954 -78 -112 53 -165 89 -249 168 -239 223 -350 565 -285 878 40 197 125 356 264 496 230 229 548 327 859 263z"></path><path d="M 4018.353 2114.967 C 3971.689 2102.203 3906.357 2036.42 3892.876 1991.256 C 3885.618 1968.674 3881.469 1840.054 3881.469 1672.161 L 3881.469 1390.375 L 3562.075 1387.429 L 3241.643 1384.484 L 3200.162 1357.975 C 3135.869 1317.719 3108.907 1269.61 3108.907 1193.027 C 3108.907 1116.444 3135.869 1068.334 3200.162 1028.08 L 3241.643 1001.57 L 3561.039 998.625 L 3880.433 995.679 L 3883.544 694.256 C 3886.655 396.764 3886.655 392.837 3911.543 355.528 C 3925.023 334.909 3955.097 306.436 3977.911 291.709 C 4013.169 269.126 4031.834 265.199 4088.869 265.199 C 4145.903 265.199 4164.57 269.126 4199.827 291.709 C 4222.641 306.436 4252.714 334.909 4266.195 355.528 C 4291.083 392.837 4291.083 396.764 4294.194 694.256 L 4297.305 995.679 L 4615.663 998.625 C 4929.873 1001.57 4934.021 1001.57 4973.427 1025.134 C 4995.204 1037.899 5025.277 1066.372 5040.832 1087.971 C 5064.682 1121.353 5068.831 1139.026 5068.831 1193.027 C 5068.831 1247.028 5064.682 1264.702 5040.832 1298.083 C 5025.277 1319.683 4995.204 1348.157 4973.427 1360.919 C 4934.021 1384.484 4929.873 1384.484 4615.663 1387.429 L 4297.305 1390.375 L 4294.194 1691.797 C 4291.083 1989.292 4291.083 1993.219 4266.195 2030.529 C 4217.456 2105.149 4109.61 2141.476 4018.353 2114.967 Z" style="transform-box: fill-box; transform-origin: 50% 50%;" transform="matrix(0.687356, -0.72632, 0.72632, 0.687356, -0.000212, -0.000138)"></path></g></svg>