<svg width="41" height="40" viewBox="0 0 41 40" fill="none" xmlns="http://www.w3.org/2000/svg"><g id="favorite_zsbmczw5nz2n 1" clip-path="url(#clip0_1350_47)"><g id="Group"><g id="Group_2"><path id="Vector" d="M20.0078 0C8.97984 0 0.0078125 8.97203 0.0078125 20C0.0078125 31.028 8.97984 40 20.0078 40C31.0358 40 40.0078 31.028 40.0078 20C40.0078 8.97203 31.0358 0 20.0078 0ZM20.0078 37.3913C10.4183 37.3913 2.61648 29.5896 2.61648 20C2.61648 10.4104 10.4183 2.60867 20.0078 2.60867C29.5973 2.60867 37.3991 10.4105 37.3991 20C37.3991 29.5895 29.5973 37.3913 20.0078 37.3913Z" fill="white"/></g></g><g id="Group_3"><g id="Group_4"><path id="Vector_2" d="M30.1197 15.4848L23.9409 14.587L21.1777 8.98801C20.7001 8.02035 19.3162 8.0202 18.8384 8.98801L16.0752 14.587L9.89647 15.4848C8.8289 15.6397 8.40054 16.9561 9.17358 17.7096L13.6445 22.0678L12.5891 28.2215C12.4068 29.2848 13.5259 30.0988 14.4816 29.5966L20.008 26.6911L25.5344 29.5965C25.7253 29.6968 25.9337 29.7464 26.1413 29.7464C26.9442 29.7464 27.5645 29.0232 27.427 28.2215L26.3716 22.0678L30.8425 17.7096C31.6151 16.9566 31.188 15.64 30.1197 15.4848ZM24.0597 20.6784C23.7522 20.9781 23.6119 21.4098 23.6845 21.8329L24.4091 26.0577L20.6151 24.063C20.235 23.8632 19.7812 23.8632 19.4011 24.063L15.607 26.0577L16.3316 21.8329C16.4042 21.4098 16.264 20.9781 15.9565 20.6784L12.887 17.6864L17.129 17.07C17.5538 17.0082 17.921 16.7414 18.1111 16.3564L20.008 12.5125L21.9051 16.3564C22.0951 16.7414 22.4623 17.0082 22.8872 17.07L27.1291 17.6864L24.0597 20.6784Z" fill="white"/></g></g></g><defs><clipPath id="clip0_1350_47"><rect width="40" height="40" fill="white" transform="translate(0.0078125)"/></clipPath></defs></svg>
