<!-- icon666.com - MILLIONS vector ICONS FREE --><svg id="icons" enable-background="new 0 0 512 512" viewBox="0 0 512 512" xmlns="http://www.w3.org/2000/svg"><path d="m259.7 234.7h-7.5c-62.7 0-113.6 50.9-113.6 113.6v57.1h234.7v-57.1c0-62.8-50.8-113.6-113.6-113.6z"></path><circle cx="256" cy="170.7" r="64"></circle><path d="m384.6 256h-.6c29.5 0 53.3-23.9 53.3-53.3s-23.9-53.3-53.3-53.3-53.3 23.9-53.3 53.3c0 42.7 41.4 51.4 57.6 97.4 4.3 13.5 5.9 26.7 6.4 41.3v64h85.3v-54c0-52.7-42.7-95.4-95.4-95.4z"></path><path d="m128 149.3c-29.5 0-53.3 23.9-53.3 53.3s23.8 53.4 53.3 53.4h-.6c-52.7 0-95.4 42.7-95.4 95.4v54h85.3v-64c.3-14.6 1.9-28 6.3-41.8 16.3-45.4 57.7-54.2 57.7-96.9 0-29.5-23.8-53.4-53.3-53.4z"></path></svg>