<!-- icon666.com - MILLIONS vector ICONS FREE --><svg class="svg-icons-header" version="1.1" id="Capa_1" xmlns="http://www.w3.org/2000/svg" xmlns:xlink="http://www.w3.org/1999/xlink" x="0px" y="0px" viewBox="0 0 512 512" style="enable-background:new 0 0 512 512;" xml:space="preserve"><g><g><path d="M407,0H105C47.103,0,0,47.103,0,105v302c0,57.897,47.103,105,105,105h302c57.897,0,105-47.103,105-105V105 C512,47.103,464.897,0,407,0z M469.543,63.671L319.64,213.573l23.743,23.745l75.26-19.512 c-11.696,17.343-28.009,30.844-47.264,39.096l-1.381,0.592c-16.82,7.208-31.163,19.054-41.478,34.255 c-10.208,15.044-16.012,32.683-16.784,51.011c-0.985,23.412-9.5,43.78-24.623,58.903c-38.99,38.989-110.361,31.06-159.099-17.678 c-48.737-48.738-56.667-120.109-17.678-159.099c15.124-15.124,35.492-23.638,58.902-24.624 c18.329-0.771,35.968-6.575,51.012-16.783c15.202-10.316,27.047-24.659,34.255-41.478l0.593-1.383 c8.251-19.253,21.753-35.567,39.096-47.262l-19.511,75.259l23.744,23.744L448.329,42.458 C456.741,48.035,463.965,55.259,469.543,63.671z M482,407c0,41.355-33.645,75-75,75H105c-41.355,0-75-33.645-75-75V105 c0-41.355,33.645-75,75-75h302c3.598,0,7.133,0.27,10.598,0.763L314.75,133.611l8.852-34.143 c2.606-10.054-0.336-20.861-7.681-28.205c-9.807-9.808-25.346-11.41-36.95-3.808c-22.881,14.991-40.671,36.205-51.447,61.347 l-0.593,1.384c-10.129,23.634-32.718,39.001-58.954,40.105c-31.054,1.307-58.321,12.851-78.854,33.384 c-24.954,24.954-36.612,59.958-32.827,98.565c3.677,37.503,21.613,74.069,50.505,102.96 c28.891,28.892,65.457,46.828,102.96,50.505c4.774,0.468,9.488,0.7,14.139,0.7c32.966-0.001,62.558-11.659,84.426-33.526 c20.533-20.533,32.077-47.8,33.384-78.854c1.104-26.235,16.472-48.825,40.107-58.955l1.381-0.592 c25.143-10.775,46.357-28.565,61.349-51.447c7.601-11.603,6-27.143-3.809-36.95c-7.344-7.344-18.153-10.286-28.206-7.68 l-34.143,8.852L481.237,94.402c0.492,3.464,0.763,7,0.763,10.598V407z" fill="#000000" style="fill: rgb(255, 255, 255);"></path></g></g><g><g><rect x="206.352" y="250.655" transform="matrix(0.7071 -0.7071 0.7071 0.7071 -140.6915 241.6503)" width="30" height="79.999" fill="#000000" style="fill: rgb(255, 255, 255);"></rect></g></g><g><g><rect x="248.778" y="208.225" transform="matrix(0.7071 -0.7071 0.7071 0.7071 -98.2628 259.2217)" width="30" height="79.999" fill="#000000" style="fill: rgb(255, 255, 255);"></rect></g></g></svg>