<!-- icon666.com - MILLIONS vector ICONS FREE --><svg id="icons" viewBox="0 0 48 48" xmlns="http://www.w3.org/2000/svg"><path d="m39.46 23.6a5 5 0 1 0 -7.46-.6 12 12 0 0 0 -4-2.34 6.5 6.5 0 1 0 -7.87 0 12 12 0 0 0 -4.13 2.34 5 5 0 0 0 1-3 5 5 0 1 0 -8.46 3.6 9.51 9.51 0 0 0 -6.54 8.86v4.54a1 1 0 0 0 1 1h42a1 1 0 0 0 1-1v-4.54a9.51 9.51 0 0 0 -6.54-8.86zm-6.46-3.6a3 3 0 1 1 3 3 3 3 0 0 1 -3-3zm-13.5-4.5a4.5 4.5 0 1 1 4.5 4.5 4.5 4.5 0 0 1 -4.5-4.5zm-10.5 4.5a3 3 0 1 1 3 3 3 3 0 0 1 -3-3zm-5 12.46a7.75 7.75 0 0 1 8-7.46h2.2a11.54 11.54 0 0 0 -2.2 6.77v4.23h-8zm10-.69a10 10 0 0 1 20 0v4.23h-20zm30 4.23h-8v-4.23a11.54 11.54 0 0 0 -2.2-6.77h2.2a7.75 7.75 0 0 1 8 7.46z"></path></svg>