<!-- icon666.com - MILLIONS vector ICONS FREE --><svg version="1.1" id="Capa_1" xmlns="http://www.w3.org/2000/svg" xmlns:xlink="http://www.w3.org/1999/xlink" x="0px" y="0px" viewBox="0 0 511.996 511.996" style="enable-background:new 0 0 511.996 511.996;" xml:space="preserve"><g><g><g><path d="M210.634,237.561c6.905,5.848,17.244,4.988,23.092-1.917c5.84-6.905,4.979-17.244-1.926-23.092 c-21.033-17.812-29.331-51.917-19.276-79.34c4.153-11.369,15.149-30.423,41.995-30.423c13.685,0,24.228,4.535,32.206,13.871 c12.318,14.395,15.415,36.91,13.09,51.704c-5.05,31.621-23.625,57.029-58.449,79.952c-7.552,4.979-9.647,15.131-4.668,22.693 c3.151,4.783,8.369,7.375,13.703,7.375c3.097,0,6.221-0.87,8.99-2.689c27.086-17.847,64.102-47.844,72.79-102.201 c3.319-21.086-0.071-54.198-20.536-78.133c-14.191-16.578-33.937-25.346-57.118-25.346c-33.653,0-60.854,19.409-72.773,51.917 C166.98,162.259,179.12,210.883,210.634,237.561z"></path><path d="M388.244,315.321c-12.38-37.079-64.874-60.188-70.82-62.7c-4.047-1.713-8.626-1.731-12.691-0.027 c-4.056,1.695-7.259,4.952-8.901,9.034c-7.828,19.551-23.491,31.683-40.877,31.683c0,0,0,0-0.009,0 c-17.297,0-32.366-11.839-40.3-31.674c-1.633-4.091-4.837-7.348-8.901-9.043c-4.047-1.695-8.626-1.677-12.691,0.027 c-5.946,2.512-58.44,25.621-70.811,62.7c-7.428,22.276-7.153,38.046-6.869,54.739c0.062,3.355,0.124,6.86,0.124,10.57 c0,9.052,7.331,16.392,16.383,16.392c9.052,0,16.383-7.339,16.383-16.392c0-3.905-0.062-7.597-0.124-11.129 c-0.266-15.602-0.461-26.873,5.192-43.823c4.464-13.374,22.826-27.139,38.907-36.138c14.457,22.888,37.354,36.528,62.709,36.537 h0.009c25.639,0,48.731-13.658,63.268-36.555c16.099,8.999,34.469,22.773,38.933,36.156c3.009,9.017,6.541,30.866,7.144,83.529 H130.354c-9.052,0-16.383,7.331-16.383,16.383c0,9.052,7.331,16.392,16.383,16.392h251.314c9.043,0,16.383-7.339,16.383-16.392 c0-1.864-0.32-3.683-0.896-5.36C397.048,384.872,395.841,338.129,388.244,315.321z"></path><path d="M484.171,217.841c0-47.267-33.183-85.721-73.971-85.721c-23.039,0-44.595,12.203-57.677,32.641 c-14.776,23.083-15.903,52.254-3.088,80.014c3.79,8.218,13.516,11.821,21.734,8.014c8.209-3.798,11.803-13.525,8.014-21.743 c-11.013-23.846-4.144-40.699,0.923-48.625c6.931-10.818,18.451-17.536,30.085-17.536c22.728,0,41.214,23.749,41.214,52.947 c0,29.224-18.486,53-41.214,53c-9.052,0-16.383,7.331-16.383,16.383s7.331,16.392,16.383,16.392 C450.97,303.606,484.162,265.134,484.171,217.841z"></path><path d="M505.949,350.82c-5.751-30.831-24.024-47.79-34.407-55.165c-7.393-5.236-17.616-3.497-22.835,3.878 c-5.236,7.384-3.505,17.607,3.878,22.844c7.748,5.493,17.705,15.948,21.166,34.478c2.245,11.901,3.639,25.985,4.464,36.75 h-47.329c-9.052,0-16.383,7.331-16.383,16.383c0,9.052,7.331,16.392,16.383,16.392h64.732c4.455,0,8.706-1.81,11.795-5.023 c3.088-3.213,4.739-7.535,4.57-11.981C511.931,408.017,510.688,375.953,505.949,350.82z"></path><path d="M101.813,270.823c-22.728,0-41.214-23.775-41.214-53c0-29.198,18.486-52.947,41.214-52.947 c11.652,0,23.19,6.718,30.112,17.536c5.068,7.925,11.937,24.778,0.941,48.633c-3.789,8.218-0.195,17.945,8.023,21.734 c8.191,3.781,17.936,0.195,21.734-8.023c12.797-27.769,11.661-56.931-3.115-80.014c-13.09-20.43-34.656-32.632-57.703-32.632 c-40.788,0-73.971,38.454-73.971,85.721c0,47.302,33.183,85.774,73.971,85.774c9.052,0,16.392-7.348,16.392-16.4 C118.195,278.154,110.865,270.823,101.813,270.823z"></path><path d="M81.134,393.614H33.788c0.825-10.765,2.228-24.876,4.482-36.803c3.301-17.865,12.762-28.151,20.11-33.626 c7.242-5.414,8.733-15.69,3.328-22.932c-5.405-7.26-15.682-8.733-22.932-3.328c-9.86,7.348-27.219,24.13-32.712,53.87 c-4.766,25.16-5.999,57.242-6.053,58.591c-0.16,4.455,1.482,8.777,4.579,11.981c3.088,3.204,7.339,5.014,11.794,5.014h64.75 c9.052,0,16.383-7.33,16.383-16.383C97.517,400.944,90.187,393.614,81.134,393.614z"></path></g></g></g></svg>