<!-- icon666.com - MILLIONS vector ICONS FREE --><svg id="Layer_1" viewBox="0 0 512 512" xmlns="http://www.w3.org/2000/svg" data-name="Layer 1"><path d="m437.2 216.879a8 8 0 1 1 -14.373-7.008 71.251 71.251 0 0 0 -21.4-88.2 70.411 70.411 0 0 0 -20.938-10.787 8 8 0 1 1 4.829-15.245 87.159 87.159 0 0 1 51.882 121.24zm-6.433-134.461c-47.564-35.577-115.094-30.7-157.079 11.33l-17.688 17.709-17.681-17.709c-41.991-42.042-109.507-46.907-157.093-11.33a120.3 120.3 0 0 0 -36.1 148.92 492.025 492.025 0 0 0 86.862 124.388 501.037 501.037 0 0 0 120.14 92.484 8.161 8.161 0 0 0 3.872.99 8.02 8.02 0 0 0 3.858-.986 500.719 500.719 0 0 0 120.159-92.484 491.846 491.846 0 0 0 86.855-124.388 120.31 120.31 0 0 0 -36.105-148.92zm51.378 156.371a137.345 137.345 0 0 0 -41.184-169.995c-54.314-40.594-131.382-35.047-179.303 12.945a8.01 8.01 0 0 1 -11.308 0 137.229 137.229 0 0 0 -220.488 157.05c47.921 98.27 128.138 180.082 226.138 230.746 98.007-50.664 178.217-132.476 226.145-230.746zm-31.6-182.8a153.25 153.25 0 0 0 -194.545 9.048 153.241 153.241 0 0 0 -240.533 180.781c50.033 102.582 134.176 187.762 236.911 239.84a8.071 8.071 0 0 0 3.622.872 7.975 7.975 0 0 0 3.622-.872c102.735-52.078 186.878-137.258 236.904-239.84a153.351 153.351 0 0 0 -45.985-189.832z" fill="#6c27b3" fill-rule="evenodd"></path></svg>