<?xml version="1.0" standalone="no"?>
<!DOCTYPE svg PUBLIC "-//W3C//DTD SVG 20010904//EN"
 "http://www.w3.org/TR/2001/REC-SVG-20010904/DTD/svg10.dtd">
<svg version="1.0" xmlns="http://www.w3.org/2000/svg" width="32.000000pt" height="32.000000pt" viewBox="0 0 32.000000 32.000000" preserveAspectRatio="xMidYMid meet"><g transform="translate(0.000000,32.000000) scale(0.100000,-0.100000)" fill="#000000" stroke="none"><path d="M183 294 c-23 -23 -25 -30 -18 -82 4 -31 8 -58 8 -58 1 -1 26 2 56 6 39 5 60 13 73 30 63 78 -47 175 -119 104z m97 -14 c41 -41 9 -100 -55 -100 -19 0 -35 4 -35 9 0 5 -3 22 -6 39 -12 58 54 94 96 52z"/><path d="M230 255 c0 -14 5 -25 10 -25 6 0 10 11 10 25 0 14 -4 25 -10 25 -5 0 -10 -11 -10 -25z"/><path d="M230 210 c0 -5 5 -10 10 -10 6 0 10 5 10 10 0 6 -4 10 -10 10 -5 0-10 -4 -10 -10z"/><path d="M40 210 c-22 -22 -25 -42 -10 -70 8 -15 6 -24 -10 -40 -20 -20 -27 -50 -12 -50 5 0 14 11 20 25 21 45 92 42 107 -5 3 -11 11 -20 16 -20 16 0 10 29 -11 50 -16 16 -18 25 -10 40 5 10 10 26 10 34 0 22 -36 56 -60 56 -11 0 -29 -9 -40 -20z m70 -15 c15 -18 10 -45 -12 -59 -35 -22 -74 27 -48 59 16 19 44 19 60 0z"/></g></svg>
