<?xml version="1.0" standalone="no"?>
<!DOCTYPE svg PUBLIC "-//W3C//DTD SVG 20010904//EN"
 "http://www.w3.org/TR/2001/REC-SVG-20010904/DTD/svg10.dtd">
<svg version="1.0" xmlns="http://www.w3.org/2000/svg" width="90.000000pt" height="90.000000pt" viewBox="0 0 90.000000 90.000000" preserveAspectRatio="xMidYMid meet"><g transform="translate(0.000000,90.000000) scale(0.100000,-0.100000)" fill="#000000" stroke="none"><path d="M355 797 c-54 -18 -99 -42 -115 -62 -11 -13 -11 -18 2 -32 15 -14 21 -13 75 13 82 41 183 41 265 1 107 -53 163 -144 163 -267 0 -85 -21 -142 -74 -203 -82 -93 -237 -121 -354 -63 -54 26 -60 27 -75 13 -14 -15 -14 -18 2 -36 37 -40 115 -66 206 -66 72 0 94 4 145 28 78 36 146 104 182 181 24 52 28 74 28 146 0 72 -4 94 -28 146 -57 123 -177 204 -311 211 -41 1 -88 -3 -111 -10z"/><path d="M128 533 c-38 -38 -68 -75 -68 -84 0 -24 135 -152 156 -147 33 6 28 38 -12 79 l-38 39 170 2 169 3 0 25 0 25 -169 3 -170 2 38 39 c41 41 45 74 11 79 -14 2 -42 -19 -87 -65z"/></g></svg>
