<svg version="1.1" xmlns="http://www.w3.org/2000/svg" xmlns:xlink="http://www.w3.org/1999/xlink" width="128px" height="128px" viewBox="0,0,256,256"><g fill="#ffffff" fill-rule="nonzero" stroke="none" stroke-width="1" stroke-linecap="butt" stroke-linejoin="miter" stroke-miterlimit="10" stroke-dasharray="" stroke-dashoffset="0" font-family="none" font-weight="none" font-size="none" text-anchor="none" style="mix-blend-mode: normal"><g transform="scale(2,2)"><path d="M63.71094,6.04297c-14.896,0.0791 -28.93555,5.65039 -39.81055,16.05664c-11.5,11 -17.90039,25.90039 -17.90039,41.90039c0,12.7 3.99922,24.80039 11.69922,34.90039c1,1.3 2.90117,1.59961 4.20117,0.59961c1.3,-1 1.59961,-2.89922 0.59961,-4.19922c-6.9,-9.1 -10.5,-19.90078 -10.5,-31.30078c0,-14.3 5.69961,-27.69961 16.09961,-37.59961c10.4,-9.9 24.00039,-15.00078 38.40039,-14.30078c26.7,1.2 48.4,23.10078 49.5,49.80078c0.9,21.9 -12.10039,42.10039 -32.40039,50.40039c-1.5,0.6 -2.29922,2.39844 -1.69922,3.89844c0.5,1.2 1.59883,1.90039 2.79883,1.90039c0.4,0 0.80156,-0.09922 1.10156,-0.19922c22.6,-9.3 37.09922,-31.90078 36.19922,-56.30078c-1.3,-29.8 -25.50078,-54.2 -55.30078,-55.5c-1,-0.04375 -1.99522,-0.06191 -2.98828,-0.05664zM64,30c-4.97056,0 -9,4.02944 -9,9c0,4.97056 4.02944,9 9,9c4.97056,0 9,-4.02944 9,-9c0,-4.97056 -4.02944,-9 -9,-9zM64,59c-5,0 -9,4 -9,9v24c0,5 4,9 9,9c5,0 9,-4 9,-9v-24c0,-5 -4,-9 -9,-9zM33.11914,106.58789c-0.95703,-0.00879 -1.89453,0.4375 -2.51953,1.3125c-0.9,1.4 -0.59922,3.19922 0.80078,4.19922c3.2,2 6.50039,3.80078 9.90039,5.30078c0.4,0.2 0.79922,0.19922 1.19922,0.19922c1.2,0 2.30078,-0.69883 2.80078,-1.79883c0.6,-1.5 -0.10156,-3.30039 -1.60156,-3.90039c-3.1,-1.3 -6.09844,-2.90078 -8.89844,-4.80078c-0.525,-0.3375 -1.10742,-0.50645 -1.68164,-0.51172z"></path></g></g></svg>