<!-- icon666.com - MILLIONS vector ICONS FREE --><svg class="svg-icons-header" viewBox="0 0 512 512.00025" xmlns="http://www.w3.org/2000/svg"><path d="m334.941406 170.058594c0 11.046875-8.953125 19.996094-19.996094 19.996094h-39.992187v39.996093c0 11.042969-8.953125 19.996094-19.996094 19.996094-11.046875 0-19.996093-8.953125-19.996093-19.996094v-39.996093h-39.996094c-11.042969 0-19.996094-8.949219-19.996094-19.996094 0-11.042969 8.953125-19.996094 19.996094-19.996094h39.996094v-39.992188c0-11.042968 8.949218-19.996093 19.996093-19.996093 11.042969 0 19.996094 8.953125 19.996094 19.996093v39.992188h39.992187c11.042969 0 19.996094 8.953125 19.996094 19.996094zm136.976563 161.972656v-113.34375l-173.726563 108.027344c-13.023437 8.097656-27.628906 12.148437-42.234375 12.148437s-29.210937-4.050781-42.238281-12.148437l-173.726562-108.027344v213.328125c0 22.050781 17.941406 39.992187 39.992187 39.992187h351.941406c22.050781 0 39.992188-17.941406 39.992188-39.992187 0-11.046875 8.953125-19.996094 19.996093-19.996094 11.042969 0 19.996094 8.949219 19.996094 19.996094 0 44.101563-35.878906 79.984375-79.984375 79.984375h-351.941406c-44.101563 0-79.984375-35.882812-79.984375-79.984375v-239.371094c0-27.417969 13.789062-52.605469 36.886719-67.382812l176.617187-112.972657c.070313-.046874.140625-.09375.214844-.140624 26.050781-16.199219 58.421875-16.199219 84.472656 0 .078125.046874.152344.09375.226563.144531l176.640625 113.109375c23.074218 14.777344 36.851562 39.957031 36.851562 67.355468v139.273438c0 11.042969-8.953125 19.996094-19.996094 19.996094-11.042968 0-19.996093-8.953125-19.996093-19.996094zm-4.472657-157.660156c-3.167968-6.128906-7.917968-11.425782-13.953124-15.289063l-176.519532-113.03125c-12.976562-8.019531-29.0625-8.019531-42.039062.003907l-176.496094 112.898437c-6.074219 3.886719-10.84375 9.21875-14.019531 15.390625l190.417969 118.40625c13.027343 8.097656 29.210937 8.097656 42.238281 0zm0 0" fill="#000000" style="fill: rgb(255, 255, 255);"></path></svg>