<!-- icon666.com - MILLIONS vector ICONS FREE --><svg version="1.1" id="Layer_1" xmlns="http://www.w3.org/2000/svg" xmlns:xlink="http://www.w3.org/1999/xlink" x="0px" y="0px" viewBox="0 0 512 512" style="enable-background:new 0 0 512 512;" xml:space="preserve"><g><path style="fill: rgb(250, 250, 250);" d="M380.718,209.979H68.229C30.607,209.979,0,179.372,0,141.75v-7.881 c0-37.621,30.607-68.229,68.229-68.229h312.489c7.249,0,13.128,5.877,13.128,13.128c0,7.251-5.879,13.128-13.128,13.128 c-23.144,0-41.973,18.828-41.973,41.972v7.881c0,23.144,18.83,41.972,41.973,41.972c7.249,0,13.128,5.878,13.128,13.128 S387.967,209.979,380.718,209.979z M68.229,91.897c-23.144,0-41.972,18.828-41.972,41.972v7.881 c0,23.144,18.828,41.972,41.972,41.972h258.732c-9.062-11.583-14.471-26.158-14.471-41.972v-7.881 c0-15.814,5.409-30.389,14.471-41.972H68.229L68.229,91.897z" fill="#FFC61B"></path><path style="fill: rgb(250, 250, 250);" d="M101.338,152.008c-7.251,0-13.128-5.877-13.128-13.128V84.397c0-7.251,5.877-13.128,13.128-13.128 s13.128,5.877,13.128,13.128v54.482C114.466,146.13,108.589,152.008,101.338,152.008z" fill="#FFC61B"></path><path style="fill: rgb(250, 250, 250);" d="M393.846,91.897h-78.769c-7.249,0-13.128-5.877-13.128-13.128c0-7.251,5.879-13.128,13.128-13.128 h78.769c7.249,0,13.128,5.877,13.128,13.128C406.974,86.02,401.096,91.897,393.846,91.897z" fill="#FFC61B"></path><path style="fill: rgb(250, 250, 250);" d="M393.846,210.051h-78.769c-7.249,0-13.128-5.878-13.128-13.128s5.879-13.128,13.128-13.128h78.769 c7.249,0,13.128,5.878,13.128,13.128S401.096,210.051,393.846,210.051z" fill="#FFC61B"></path></g><path style="fill: rgb(235, 235, 235);" d="M378.13,259.904v-7.881c0-30.431,24.669-55.1,55.1-55.1H68.229c-30.431,0-55.1,24.669-55.1,55.1 v7.881c0,30.431,24.669,55.1,55.1,55.1h365.002C402.8,315.007,378.13,290.336,378.13,259.904z" fill="#FFEEC0"></path><g><path style="fill: rgb(250, 250, 250);" d="M433.231,328.133H68.229C30.607,328.133,0,297.526,0,259.904v-7.881 c0-37.622,30.607-68.229,68.229-68.229h365.002c7.249,0,13.128,5.878,13.128,13.128s-5.879,13.128-13.128,13.128 c-23.144,0-41.973,18.828-41.973,41.972v7.881c0,23.144,18.83,41.972,41.973,41.972c7.249,0,13.128,5.878,13.128,13.128 S440.48,328.133,433.231,328.133z M68.229,210.051c-23.144,0-41.972,18.828-41.972,41.972v7.881 c0,23.144,18.828,41.972,41.972,41.972h311.246c-9.064-11.583-14.473-26.158-14.473-41.972v-7.881 c0-15.814,5.409-30.389,14.473-41.972H68.229z" fill="#FFC61B"></path><path style="fill: rgb(250, 250, 250);" d="M101.338,270.161c-7.251,0-13.128-5.878-13.128-13.128v-54.482c0-7.251,5.877-13.128,13.128-13.128 s13.128,5.878,13.128,13.128v54.482C114.466,264.284,108.589,270.161,101.338,270.161z" fill="#FFC61B"></path><path style="fill: rgb(250, 250, 250);" d="M446.359,210.051H367.59c-7.249,0-13.128-5.878-13.128-13.128s5.879-13.128,13.128-13.128h78.769 c7.249,0,13.128,5.878,13.128,13.128S453.608,210.051,446.359,210.051z" fill="#FFC61B"></path><path style="fill: rgb(250, 250, 250);" d="M446.359,328.205H367.59c-7.249,0-13.128-5.878-13.128-13.128s5.879-13.128,13.128-13.128h78.769 c7.249,0,13.128,5.878,13.128,13.128S453.608,328.205,446.359,328.205z" fill="#FFC61B"></path><path style="fill: rgb(250, 250, 250);" d="M485.744,446.287H68.229C30.607,446.287,0,415.68,0,378.059v-7.881 c0-37.622,30.607-68.229,68.229-68.229h417.515c7.249,0,13.128,5.878,13.128,13.128s-5.879,13.128-13.128,13.128 c-23.144,0-41.973,18.828-41.973,41.972v7.881c0,23.144,18.83,41.972,41.973,41.972c7.249,0,13.128,5.877,13.128,13.128 C498.872,440.409,492.993,446.287,485.744,446.287z M68.229,328.205c-23.144,0-41.972,18.828-41.972,41.972v7.881 c0,23.144,18.828,41.972,41.972,41.972h363.758c-9.062-11.583-14.471-26.158-14.471-41.972v-7.881 c0-15.814,5.409-30.389,14.471-41.972L68.229,328.205L68.229,328.205z" fill="#FFC61B"></path><path style="fill: rgb(250, 250, 250);" d="M101.338,388.315c-7.251,0-13.128-5.878-13.128-13.128v-54.482c0-7.251,5.877-13.128,13.128-13.128 s13.128,5.878,13.128,13.128v54.482C114.466,382.438,108.589,388.315,101.338,388.315z" fill="#FFC61B"></path><path style="fill: rgb(250, 250, 250);" d="M498.872,328.205h-78.769c-7.249,0-13.128-5.878-13.128-13.128s5.879-13.128,13.128-13.128h78.769 c7.249,0,13.128,5.878,13.128,13.128S506.121,328.205,498.872,328.205z" fill="#FFC61B"></path><path style="fill: rgb(250, 250, 250);" d="M498.872,446.359h-78.769c-7.249,0-13.128-5.877-13.128-13.128c0-7.251,5.879-13.128,13.128-13.128 h78.769c7.249,0,13.128,5.878,13.128,13.128C512,440.482,506.121,446.359,498.872,446.359z" fill="#FFC61B"></path></g></svg>