<!-- icon666.com - MILLIONS vector ICONS FREE --><svg viewBox="0 0 511.99909 511" xmlns="http://www.w3.org/2000/svg"><path d="m178.152344 256.296875h78.03125v51.160156c0 7.066407 5.726562 12.789063 12.789062 12.789063 7.066406 0 12.792969-5.722656 12.792969-12.789063v-51.160156h51.15625v63.949219c0 7.066406 5.726563 12.789062 12.792969 12.789062 7.0625 0 12.789062-5.722656 12.789062-12.789062v-76.738282c0-7.0625-5.726562-12.789062-12.789062-12.789062h-167.5625c-7.066406-48.941406-52.464844-82.886719-101.402344-75.820312-48.9375 7.0625-82.882812 52.460937-75.820312 101.398437 7.0625 48.941406 52.460937 82.886719 101.402343 75.820313 39.285157-5.667969 70.148438-36.53125 75.820313-75.820313zm-152.1875-12.789063c0-35.316406 28.632812-63.949218 63.949218-63.949218 35.316407 0 63.949219 28.632812 63.949219 63.949218 0 35.316407-28.632812 63.949219-63.949219 63.949219-35.300781-.039062-63.910156-28.648437-63.949218-63.949219zm0 0"></path><path d="m256.183594.5c-70.613282-.214844-138.113282 29.066406-186.203125 80.773438-4.960938 5.027343-4.910157 13.125.113281 18.085937 5.027344 4.964844 13.125 4.914063 18.089844-.113281.148437-.148438.289062-.304688.433594-.460938 43.277343-46.535156 104.015624-72.890625 167.566406-72.707031 127.144531-.132813 230.324218 102.828125 230.460937 229.976563.132813 127.144531-102.828125 230.324218-229.972656 230.457031-74.667969.082031-144.738281-36.058594-187.964844-96.945313-4.003906-5.820312-11.964843-7.292968-17.785156-3.292968-5.824219 4.003906-7.296875 11.964843-3.292969 17.789062.078125.113281.160156.230469.242188.339844 81.84375 115.09375 241.492187 142.050781 356.585937 60.207031 115.09375-81.847656 142.046875-241.492187 60.203125-356.585937-47.984375-67.480469-125.675781-107.550782-208.476562-107.523438zm0 0"></path></svg>