<svg xmlns:dc="http://purl.org/dc/elements/1.1/" xmlns:cc="http://creativecommons.org/ns#" xmlns:rdf="http://www.w3.org/1999/02/22-rdf-syntax-ns#" xmlns:svg="http://www.w3.org/2000/svg" xmlns="http://www.w3.org/2000/svg" xmlns:xlink="http://www.w3.org/1999/xlink" id="svg264974" viewBox="0 0 1024 768" height="768" width="1024" version="1.1">
  <metadata id="metadata264980" fill="#FFFFFF">
    <rdf:rdf fill="#FFFFFF">
      <cc:work rdf:about="" fill="#FFFFFF">
        <dc:format fill="#FFFFFF">image/svg+xml</dc:format>
        <dc:type rdf:resource="http://purl.org/dc/dcmitype/StillImage" fill="#FFFFFF"></dc:type>
      </cc:work>
    </rdf:rdf>
  </metadata>
  <defs id="defs264978"></defs>
  <linearGradient spreadMethod="pad" y2="30%" x2="-10%" y1="120%" x1="30%" id="3d_gradient2-logo-10c81da9-3b35-4615-889f-b315a633b966" fill="#FFFFFF">
    <stop id="stop264955" stop-opacity="1" stop-color="#ffffff" offset="0%" fill="#FFFFFF"></stop>
    <stop id="stop264957" stop-opacity="1" stop-color="#000000" offset="100%" fill="#FFFFFF"></stop>
  </linearGradient>
  <linearGradient gradientTransform="rotate(-30)" spreadMethod="pad" y2="30%" x2="-10%" y1="120%" x1="30%" id="3d_gradient3-logo-10c81da9-3b35-4615-889f-b315a633b966" fill="#FFFFFF">
    <stop id="stop264960" stop-opacity="1" stop-color="#ffffff" offset="0%" fill="#FFFFFF"></stop>
    <stop id="stop264962" stop-opacity="1" stop-color="#cccccc" offset="50%" fill="#FFFFFF"></stop>
    <stop id="stop264964" stop-opacity="1" stop-color="#000000" offset="100%" fill="#FFFFFF"></stop>
  </linearGradient>
  <g id="logo-group" fill="#FFFFFF">
    <image xlink:href="" id="container" x="272" y="144" width="480" height="480" transform="translate(0 0)" style="display: none;" fill="#FFFFFF"></image>
    <g id="logo-center" transform="translate(5.684341886080802e-14 0)" fill="#FFFFFF">
      <image xlink:href="" id="icon_container" x="0" y="0" style="display: none;" fill="#FFFFFF"></image>
      <g id="slogan" style="font-style:normal;font-weight:400;font-size:32px;line-height:1;font-family:'Archivo Narrow';font-variant-ligatures:none;text-align:center;text-anchor:middle" transform="translate(0 0)" fill="#FFFFFF"></g>
      <g id="title" style="font-style:normal;font-weight:700;font-size:72px;line-height:1;font-family:'Comfortaa Bold Alt1';font-variant-ligatures:none;text-align:center;text-anchor:middle" transform="translate(0 0)" fill="#FFFFFF">
        <path id="path264983" style="font-style:normal;font-weight:700;font-size:72px;line-height:1;font-family:'Comfortaa Bold Alt1';font-variant-ligatures:none;text-align:center;text-anchor:middle" d="m 349.09775,-54.36 c -2.88,-1.656 -6.336,-2.52 -10.44,-2.52 -3.816,0 -7.272,0.648 -10.296,1.8 -3.024,1.152 -5.472,2.88 -7.2,5.112 -1.728,2.232 -2.592,4.896 -2.592,7.92 0,4.392 1.656,8.064 5.112,10.944 3.384,2.88 8.064,4.608 14.04,5.184 4.32,0.432 7.488,1.656 9.648,3.6 2.088,1.944 3.168,4.248 3.168,6.984 0,2.88 -1.296,5.184 -3.744,6.84 -2.52,1.656 -5.544,2.448 -9.144,2.448 -3.096,0 -5.904,-0.648 -8.424,-1.944 -2.592,-1.296 -4.248,-2.88 -5.112,-4.752 -0.36,-0.72 -0.864,-1.368 -1.584,-1.8 -0.72,-0.432 -1.44,-0.72 -2.16,-0.72 -0.36,0 -0.576,0.072 -0.72,0.072 -0.936,0.216 -1.656,0.576 -2.16,1.152 -0.576,0.576 -0.792,1.152 -0.792,1.872 0,0.432 0.072,0.864 0.36,1.44 1.44,3.456 4.032,6.192 7.848,8.28 3.816,2.16 8.064,3.168 12.744,3.168 3.528,0 6.84,-0.576 9.936,-1.8 3.096,-1.224 5.616,-3.096 7.488,-5.544 1.872,-2.448 2.808,-5.472 2.808,-8.928 0,-4.752 -1.584,-8.568 -4.752,-11.448 -3.168,-2.88 -7.632,-4.68 -13.392,-5.256 -5.184,-0.504 -8.784,-1.584 -10.8,-3.312 -2.016,-1.656 -3.024,-3.744 -3.024,-6.264 0,-2.664 1.08,-4.68 3.384,-6.12 2.232,-1.44 5.184,-2.16 8.856,-2.16 2.952,0 5.4,0.576 7.344,1.728 1.944,1.152 3.6,2.736 4.896,4.896 0.288,0.648 0.792,1.152 1.44,1.512 0.576,0.36 1.296,0.504 2.016,0.504 0.72,0 1.296,-0.144 1.872,-0.504 0.936,-0.648 1.44,-1.512 1.44,-2.592 0,-0.792 -0.288,-1.656 -0.864,-2.592 -2.016,-3.096 -4.392,-5.472 -7.2,-7.2 z" stroke-width="0px" stroke-linejoin="miter" stroke-miterlimit="2" fill="#774892" stroke="#774892" transform="translate(0 299.098) translate(227.93892874999995 43.743199999999995) scale(1.11) translate(-316.69775 56.88)"></path>
        <path id="path264985" style="font-style:normal;font-weight:700;font-size:72px;line-height:1;font-family:'Comfortaa Bold Alt1';font-variant-ligatures:none;text-align:center;text-anchor:middle" d="m 396.58175,-37.08 c -3.024,-1.728 -6.408,-2.592 -10.152,-2.592 -3.888,0 -7.272,0.864 -10.296,2.592 -3.024,1.728 -5.4,4.032 -7.056,7.056 -1.728,3.024 -2.52,6.48 -2.52,10.368 0,3.888 0.792,7.272 2.52,10.296 1.656,3.024 4.032,5.4 7.056,7.128 3.024,1.728 6.408,2.52 10.296,2.52 3.816,0 7.2,-0.792 10.224,-2.52 3.024,-1.728 5.328,-4.104 7.056,-7.128 1.656,-3.024 2.52,-6.408 2.52,-10.296 0,-3.888 -0.864,-7.344 -2.592,-10.368 -1.728,-3.024 -4.032,-5.328 -7.056,-7.056 z m -16.776,5.616 c 1.944,-1.152 4.176,-1.728 6.624,-1.728 2.448,0 4.608,0.576 6.552,1.728 1.944,1.152 3.456,2.808 4.536,4.824 1.08,2.088 1.656,4.392 1.656,6.984 0,2.592 -0.576,4.968 -1.656,6.984 -1.08,2.016 -2.592,3.6 -4.536,4.752 -1.944,1.152 -4.104,1.728 -6.552,1.728 -2.448,0 -4.68,-0.576 -6.624,-1.728 -1.944,-1.152 -3.456,-2.736 -4.536,-4.752 -1.152,-2.016 -1.656,-4.392 -1.656,-6.984 0,-2.592 0.504,-4.896 1.656,-6.984 1.08,-2.016 2.592,-3.672 4.536,-4.824 z" stroke-width="0px" stroke-linejoin="miter" stroke-miterlimit="2" fill="#7E5097" stroke="#7E5097" transform="translate(0 299.098) translate(299.93352874999994 62.844080000000005) scale(1.11) translate(-366.55775 39.672)"></path>
        <path id="path264987" style="font-style:normal;font-weight:700;font-size:72px;line-height:1;font-family:'Comfortaa Bold Alt1';font-variant-ligatures:none;text-align:center;text-anchor:middle" d="m 453.374,-3.672 v -32.112 c 0,-1.08 -0.36,-1.944 -1.008,-2.664 -0.72,-0.648 -1.584,-1.008 -2.664,-1.008 -1.08,0 -1.944,0.36 -2.664,1.008 -0.72,0.72 -1.008,1.584 -1.008,2.664 v 20.304 c 0,1.8 -0.504,3.312 -1.44,4.68 -0.936,1.44 -2.232,2.52 -3.888,3.312 -1.656,0.864 -3.528,1.224 -5.472,1.224 -3.528,0 -6.264,-0.936 -8.352,-2.952 -2.088,-2.016 -3.096,-4.968 -3.096,-8.856 v -17.712 c 0,-1.008 -0.36,-1.872 -1.08,-2.592 -0.72,-0.72 -1.584,-1.08 -2.592,-1.08 -1.08,0 -1.944,0.36 -2.664,1.08 -0.72,0.72 -1.008,1.584 -1.008,2.592 v 17.712 c 0,3.96 0.72,7.272 2.232,10.008 1.44,2.736 3.528,4.896 6.192,6.264 2.52,1.44 5.256,2.16 8.28,2.232 0.144,0 5.688,0 16.848,0 0.936,0 1.728,-0.36 2.376,-1.008 0.648,-0.648 1.008,-1.44 1.008,-2.448 z" stroke-width="0px" stroke-linejoin="miter" stroke-miterlimit="2" fill="#85599D" stroke="#85599D" transform="translate(0 299.098) translate(371.95060624999996 63.083839999999995) scale(1.11) translate(-416.438 39.456)"></path>
        <path id="path264989" style="font-style:normal;font-weight:700;font-size:72px;line-height:1;font-family:'Comfortaa Bold Alt1';font-variant-ligatures:none;text-align:center;text-anchor:middle" d="m 501.01213,-31.248 c -1.512,-2.736 -3.60001,-4.896 -6.192,-6.336 -2.52001,-1.296 -5.25601,-2.016 -8.28001,-2.088 -0.072,0 -0.216,-0.072 -0.216,-0.072 h -16.56 c -1.008,0 -1.79999,0.36 -2.448,1.008 -0.72,0.72 -1.00799,1.512 -1.00799,2.448 0,0.072 0,0.216 0,0.288 0,0.144 0,0.216 0,0.288 V -3.6 c 0,1.08 0.28799,1.944 1.00799,2.664 0.72001,0.72 1.584,1.008 2.664,1.008 1.08,0 1.944,-0.288 2.664,-1.008 0.648,-0.72 1.008,-1.584 1.008,-2.664 v -20.304 c 0,-1.728 0.432,-3.24 1.368,-4.68 0.936,-1.368 2.232,-2.448 3.888,-3.312 1.656,-0.792 3.528,-1.224 5.54401,-1.224 3.45599,0 6.19199,1.008 8.27999,3.024 2.08801,2.016 3.168,4.968 3.168,8.784 V -3.6 c 0,1.08 0.28801,1.944 1.008,2.664 0.72,0.72 1.584,1.008 2.66401,1.008 1.00799,0 1.87199,-0.288 2.592,-1.008 0.71999,-0.72 1.07999,-1.584 1.07999,-2.664 v -17.712 c 0,-3.888 -0.79199,-7.2 -2.23199,-9.936 z" stroke-width="0px" stroke-linejoin="miter" stroke-miterlimit="2" fill="#8C61A2" stroke="#8C61A2" transform="translate(0 299.098) translate(443.95645055 62.76416) scale(1.11) translate(-466.30813 39.744)"></path>
        <path id="path264991" style="font-style:normal;font-weight:700;font-size:72px;line-height:1;font-family:'Comfortaa Bold Alt1';font-variant-ligatures:none;text-align:center;text-anchor:middle" d="m 517.11425,-38.376 c -0.72,0.72 -1.008,1.584 -1.008,2.664 v 32.04 c 0,1.08 0.288,1.944 1.008,2.664 0.72,0.72 1.584,1.008 2.664,1.008 1.08,0 1.944,-0.288 2.664,-1.008 0.648,-0.72 1.008,-1.584 1.008,-2.664 v -32.04 c 0,-1.08 -0.36,-1.944 -1.008,-2.664 -0.72,-0.648 -1.584,-1.008 -2.664,-1.008 -1.08,0 -1.944,0.36 -2.664,1.008 z" stroke-width="0px" stroke-linejoin="miter" stroke-miterlimit="2" fill="#946AA7" stroke="#946AA7" transform="translate(0 299.098) translate(515.8823637500001 63.163759999999996) scale(1.11) translate(-516.10625 39.384)"></path>
        <path id="path264993" style="font-style:normal;font-weight:700;font-size:72px;line-height:1;font-family:'Comfortaa Bold Alt1';font-variant-ligatures:none;text-align:center;text-anchor:middle" d="m 537.90313,-37.944 v 6.192 28.08 c 0,1.152 0.288,2.016 1.00799,2.664 0.72,0.72 1.51201,1.008 2.52,1.008 1.152,0 2.08801,-0.288 2.808,-1.008 0.648,-0.648 1.008,-1.512 1.008,-2.664 v -28.08 h 7.34401 c 1.00799,0 1.79999,-0.288 2.448,-0.864 0.576,-0.576 0.936,-1.296 0.936,-2.16 0,-0.936 -0.36,-1.728 -0.936,-2.304 -0.64801,-0.576 -1.44001,-0.864 -2.448,-0.864 h -7.34401 v -1.944 c 0,-2.88 0.79201,-5.256 2.448,-7.056 1.58401,-1.728 3.744,-2.664 6.48,-2.664 1.00801,0 1.87201,-0.288 2.592,-0.936 0.72,-0.576 1.08,-1.368 1.08,-2.376 0,-0.936 -0.36,-1.728 -1.08,-2.376 -0.71999,-0.576 -1.58399,-0.936 -2.592,-0.936 -3.24,0 -6.048,0.72 -8.496,2.16 -2.44799,1.44 -4.392,3.384 -5.76,5.976 -1.368,2.592 -2.01599,5.544 -2.01599,8.928 z" stroke-width="0px" stroke-linejoin="miter" stroke-miterlimit="2" fill="#9B72AC" stroke="#9B72AC" transform="translate(0 299.098) translate(556.72690055 44.46248) scale(1.11) translate(-537.90313 56.232)"></path>
        <path id="path264995" style="font-style:normal;font-weight:700;font-size:72px;line-height:1;font-family:'Comfortaa Bold Alt1';font-variant-ligatures:none;text-align:center;text-anchor:middle" d="m 595.94862,-36.216 c 0,-1.296 -0.792,-2.232 -2.23199,-2.808 -0.57601,-0.216 -1.15201,-0.36 -1.72801,-0.36 -1.29599,0 -2.232,0.72 -2.808,2.088 l -11.592,26.136 -13.17599,-26.208 c -0.72,-1.296 -1.72801,-2.016 -3.024,-2.016 -0.576,0 -1.00801,0.144 -1.44001,0.288 -0.648,0.288 -1.152,0.72 -1.51199,1.224 -0.432,0.576 -0.576,1.152 -0.576,1.728 0,0.576 0.072,1.08 0.36,1.512 l 16.19999,30.744 -7.19999,16.2 c -0.288,0.576 -0.432,1.152 -0.432,1.728 0,1.296 0.72,2.232 2.15999,2.808 0.64801,0.288 1.22401,0.432 1.728,0.432 1.296,0 2.23201,-0.72 2.80801,-2.232 l 22.03199,-49.536 c 0.288,-0.648 0.432,-1.224 0.432,-1.728 z" stroke-width="0px" stroke-linejoin="miter" stroke-miterlimit="2" fill="#A27AB2" stroke="#A27AB2" transform="translate(0 299.098) translate(595.52972555 63.163759999999996) scale(1.11) translate(-557.86063 39.384)"></path>
        <path id="path264997" style="font-style:normal;font-weight:700;font-size:72px;line-height:1;font-family:'Comfortaa Bold Alt1';font-variant-ligatures:none;text-align:center;text-anchor:middle" d="m 658.37712,-55.152 c -0.792,-0.72 -1.65599,-1.08 -2.664,-1.008 -1.43999,0 -2.52,0.648 -3.312,1.872 0,0.072 0,0.072 0,0.144 -0.072,0 -0.072,0.072 -0.072,0.072 l -18.864,38.808 c -0.35999,0.792 -1.00799,1.152 -1.944,1.224 -0.864,0 -1.51199,-0.432 -1.94399,-1.224 l -19.36801,-38.88 c 0,0 -0.072,-0.072 -0.072,-0.072 -0.79199,-1.296 -1.872,-2.016 -3.24,-2.016 -1.07999,0 -1.944,0.36 -2.664,1.08 -0.72,0.72 -1.07999,1.656 -1.07999,2.664 v 48.744 c 0,1.08 0.35999,1.944 1.07999,2.664 0.72,0.72 1.58401,1.08 2.664,1.08 1.008,0 1.94401,-0.36 2.664,-1.08 0.72,-0.72 1.08,-1.584 1.08,-2.664 v -25.92 c 0,-1.152 0.504,-1.8 1.65601,-2.088 1.07999,-0.288 1.87199,0.144 2.448,1.152 l 13.10399,26.208 c 0.72,1.512 1.87201,2.232 3.456,2.232 1.29601,0 2.304,-0.576 3.096,-1.728 0.072,-0.072 0.144,-0.144 0.144,-0.216 l 13.24801,-27 c 0.504,-1.08 1.36799,-1.44 2.44799,-1.152 1.15201,0.216 1.728,0.936 1.728,2.088 v 26.424 c 0,1.08 0.36,1.944 1.08,2.664 0.72001,0.72 1.58401,1.08 2.664,1.08 1.00801,0 1.872,-0.36 2.592,-1.08 0.72,-0.72 1.15201,-1.584 1.15201,-2.664 v -48.744 c 0,-1.008 -0.36001,-1.944 -1.08001,-2.664 z" stroke-width="0px" stroke-linejoin="miter" stroke-miterlimit="2" fill="#A983B7" stroke="#A983B7" transform="translate(0 299.098) translate(662.45440055 44.46248) scale(1.11) translate(-603.15313 56.232)"></path>
        <path id="path264999" style="font-style:normal;font-weight:700;font-size:72px;line-height:1;font-family:'Comfortaa Bold Alt1';font-variant-ligatures:none;text-align:center;text-anchor:middle" d="m 707.5835,-18 c 0.576,-0.576 0.936,-1.368 0.936,-2.304 0,-3.744 -0.72,-7.128 -2.16,-10.08 -1.44,-2.88 -3.528,-5.184 -6.192,-6.84 -2.736,-1.584 -5.904,-2.448 -9.576,-2.448 -3.744,0 -7.128,0.864 -10.08,2.592 -2.952,1.728 -5.256,4.104 -6.912,7.128 -1.656,3.024 -2.448,6.48 -2.448,10.296 0,3.888 0.864,7.272 2.592,10.296 1.728,3.024 4.176,5.4 7.344,7.128 3.096,1.728 6.624,2.52 10.584,2.52 2.16,0 4.464,-0.36 6.912,-1.224 2.448,-0.792 4.464,-1.872 6.12,-3.168 0.72,-0.576 1.152,-1.296 1.152,-2.16 0,-0.864 -0.432,-1.728 -1.296,-2.448 -0.576,-0.432 -1.296,-0.72 -2.16,-0.72 -0.936,0 -1.728,0.288 -2.376,0.792 -1.008,0.792 -2.304,1.44 -3.888,1.944 -1.584,0.576 -3.024,0.792 -4.464,0.792 -3.672,0 -6.768,-1.008 -9.288,-3.096 -2.52,-2.016 -4.032,-4.752 -4.536,-8.136 h 27.36 c 0.936,0 1.728,-0.288 2.376,-0.864 z m -25.56,-12.6 c 2.16,-1.872 5.04,-2.88 8.568,-2.88 3.168,0 5.688,1.008 7.704,2.88 1.944,1.944 3.168,4.536 3.6,7.704 h -23.976 c 0.576,-3.168 1.944,-5.76 4.104,-7.704 z" stroke-width="0px" stroke-linejoin="miter" stroke-miterlimit="2" fill="#B08BBC" stroke="#B08BBC" transform="translate(0 299.098) translate(754.58259125 62.844080000000005) scale(1.11) translate(-671.1515 39.672)"></path>
      </g>
      <image xlink:href="" id="icon" x="0" y="0" style="display: none;" fill="#FFFFFF"></image>
    </g>
  </g>
</svg>