<!-- icon666.com - MILLIONS vector ICONS FREE --><svg version="1.1" id="Capa_1" xmlns="http://www.w3.org/2000/svg" xmlns:xlink="http://www.w3.org/1999/xlink" x="0px" y="0px" viewBox="0 0 370.87 370.87" style="enable-background:new 0 0 370.87 370.87;" xml:space="preserve"><g><path d="M185.127,199.521h0.616c34.433,0,62.346-27.913,62.346-62.344V58.286c0-26.634-16.708-49.354-40.209-58.286v32.546 c0,12.396-10.05,22.444-22.445,22.444c-12.395,0-22.445-10.048-22.445-22.444V0c-23.501,8.932-40.209,31.652-40.209,58.286v78.891 C122.781,171.608,150.694,199.521,185.127,199.521z"></path><path d="M293.602,121.7h-7.993c-9.296,0-16.833,7.535-16.833,16.833c0,45.72-37.197,82.916-82.917,82.916 c-45.722,0-82.918-37.196-82.918-82.916c0-9.298-7.535-16.833-16.833-16.833h-8.84c-9.298,0-16.833,7.535-16.833,16.833 c0,6.802,4.036,12.662,9.841,15.315c6.776,51.411,47.185,92.352,98.326,99.975v55.914h-10.206 c-24.869,0-45.103,20.231-45.103,45.101c0,8.855,7.178,16.033,16.031,16.033h112.222c8.854,0,16.031-7.178,16.031-16.033 c0-24.869-20.233-45.101-45.103-45.101h-10.206v-55.772c51.692-7.313,92.592-48.659,99.23-100.562 c5.316-2.83,8.936-8.426,8.936-14.869C310.435,129.235,302.9,121.7,293.602,121.7z"></path></g></svg>