<!-- icon666.com - MILLIONS vector ICONS FREE --><svg id="Layer" enable-background="new 0 0 512 512" viewBox="0 0 512 512" xmlns="http://www.w3.org/2000/svg"><path d="m234.035 511.997c8.829 0 17.487-3.456 24.007-9.976.13-.13.259-.262.386-.395l212.221-222.208c.049-.051.097-.103.146-.154 12.241-13.046 12.241-33.483 0-46.529-.049-.052-.097-.104-.146-.154l-212.221-222.208c-.127-.133-.256-.265-.386-.395-9.759-9.759-24.304-12.65-37.053-7.37-12.751 5.282-20.989 17.612-20.989 31.413v443.959c0 13.801 8.238 26.131 20.989 31.412 4.232 1.753 8.659 2.605 13.046 2.605zm13.965-443.044 178.64 187.047-178.64 187.047z" fill="#000000" style="fill: rgb(255, 255, 255);"></path><path d="m116 512c24.262 0 44-19.738 44-44v-424c0-24.262-19.738-44-44-44h-40c-24.262 0-44 19.738-44 44v424c0 24.262 19.738 44 44 44zm-36-464h32v416h-32z" fill="#000000" style="fill: rgb(255, 255, 255);"></path></svg>