<!-- icon666.com - MILLIONS vector ICONS FREE --><svg id="Layer_1" enable-background="new 0 0 512 512" viewBox="0 0 512 512" xmlns="http://www.w3.org/2000/svg"><g><path d="m437.017 39.687c-5.858-5.857-15.356-5.857-21.213 0-5.858 5.858-5.857 15.356 0 21.213 42.688 42.685 66.196 99.438 66.196 159.807 0 8.284 6.716 15 15 15s15-6.716 15-15c0-68.382-26.629-132.67-74.983-181.02z"></path><path d="m96.193 39.688c-5.858-5.857-15.355-5.858-21.213 0-48.352 48.354-74.98 112.641-74.98 181.019 0 8.284 6.716 15 15 15s15-6.716 15-15c0-60.365 23.508-117.118 66.193-159.805 5.858-5.858 5.858-15.356 0-21.214z"></path><path d="m370.358 85.125c-5.858 5.858-5.857 15.355 0 21.213 30.55 30.548 47.374 71.164 47.374 114.368 0 8.284 6.716 15 15 15s15-6.716 15-15c0-51.217-19.945-99.368-56.161-135.582-5.858-5.856-15.355-5.856-21.213.001z"></path><path d="m141.634 85.132c-5.858-5.857-15.356-5.857-21.213.001-36.211 36.216-56.154 84.363-56.154 135.573 0 8.284 6.716 15 15 15s15-6.716 15-15c0-43.197 16.823-83.811 47.369-114.361 5.857-5.858 5.856-15.355-.002-21.213z"></path><path d="m383.467 329.632v-76.792c0-28.011-8.918-54.59-25.79-76.865-14.101-18.617-33.332-33.16-54.939-41.717-3.007-23.111-22.82-41.018-46.738-41.018s-43.733 17.906-46.74 41.018c-21.606 8.558-40.837 23.101-54.938 41.717-16.872 22.275-25.79 48.854-25.79 76.865v76.792l-30.549 61.1c-2.325 4.65-2.076 10.172.657 14.594s7.561 7.114 12.76 7.114h66.774c7.033 36.558 39.246 64.267 77.825 64.267 38.578 0 70.791-27.709 77.823-64.267h66.778c5.199 0 10.027-2.692 12.76-7.114s2.981-9.944.657-14.594zm-127.467 117.075c-21.938 0-40.573-14.413-46.933-34.267h93.865c-6.36 19.854-24.994 34.267-46.932 34.267zm64.266-64.267h-128.533-56.062l21.279-42.559c1.042-2.083 1.583-4.379 1.583-6.708v-80.333c0-42.793 28.625-81.203 69.612-93.405 6.36-1.894 10.72-7.741 10.72-14.376v-4.686c0-9.447 7.687-17.133 17.135-17.133 9.447 0 17.133 7.686 17.133 17.133v4.686c0 6.636 4.36 12.483 10.72 14.376 40.987 12.202 69.614 50.611 69.614 93.405v80.333c0 2.329.542 4.625 1.583 6.708l21.279 42.559z"></path></g></svg>