<!-- icon666.com - MILLIONS vector ICONS FREE --><svg version="1.1" id="Capa_1" xmlns="http://www.w3.org/2000/svg" xmlns:xlink="http://www.w3.org/1999/xlink" x="0px" y="0px" viewBox="0 0 71.259 71.259" style="enable-background:new 0 0 71.259 71.259;" xml:space="preserve"><g><path d="M24.566,52.473v6.686h6v-6.686c1.8-1.04,3.014-2.98,3.014-5.207c0-3.321-2.692-6.014-6.014-6.014s-6.014,2.692-6.014,6.014 C21.552,49.493,22.766,51.433,24.566,52.473z"></path><path d="M54.092,2.896c-9.466,0-17.167,7.701-17.167,17.167v6.762H9.796C4.395,26.825,0,31.219,0,36.621v21.945 c0,5.402,4.395,9.797,9.796,9.797h35.54c5.401,0,9.796-4.395,9.796-9.797V36.621c0-5.402-4.395-9.797-9.796-9.797h-2.41v-6.762 c0-6.157,5.01-11.167,11.167-11.167s11.166,5.009,11.166,11.167v10.762h6V20.062C71.258,10.596,63.558,2.896,54.092,2.896z M49.131,36.621v21.945c0,2.094-1.703,3.797-3.796,3.797H9.796C7.703,62.363,6,60.66,6,58.566V36.621 c0-2.094,1.703-3.797,3.796-3.797h35.54C47.428,32.825,49.131,34.528,49.131,36.621z"></path></g></svg>