<!-- icon666.com - MILLIONS vector ICONS FREE --><svg version="1.1" id="Capa_1" xmlns="http://www.w3.org/2000/svg" xmlns:xlink="http://www.w3.org/1999/xlink" x="0px" y="0px" viewBox="0 0 65.469 65.469" style="enable-background:new 0 0 65.469 65.469;" xml:space="preserve"><g><path d="M50.504,23.929h-0.603v-6.762C49.902,7.701,42.202,0,32.736,0S15.569,7.701,15.569,17.167v6.762h-0.604 c-5.401,0-9.796,4.395-9.796,9.797v21.946c0,5.402,4.395,9.797,9.796,9.797h35.54c5.401,0,9.796-4.395,9.796-9.797V33.726 C60.3,28.324,55.905,23.929,50.504,23.929z M21.569,17.167C21.569,11.01,26.577,6,32.736,6c6.157,0,11.166,5.009,11.166,11.167 v6.762H21.569V17.167z M54.3,55.673c0,2.094-1.703,3.797-3.796,3.797H14.965c-2.093,0-3.796-1.703-3.796-3.797V33.726 c0-2.094,1.703-3.797,3.796-3.797h35.54c2.093,0,3.796,1.703,3.796,3.797L54.3,55.673L54.3,55.673z"></path><path d="M32.734,37.163c-3.321,0-6.014,2.692-6.014,6.014c0,2.227,1.214,4.167,3.014,5.207v6.686h6v-6.686 c1.8-1.04,3.014-2.98,3.014-5.207C38.748,39.855,36.055,37.163,32.734,37.163z"></path></g></svg>