<!-- icon666.com - MILLIONS vector ICONS FREE --><svg id="Layer_1" viewBox="0 0 512 512" xmlns="http://www.w3.org/2000/svg" data-name="Layer 1"><path d="m280.593 449.83a16 16 0 0 1 -16 16h-248.593a16 16 0 0 1 0-32h248.593a16 16 0 0 1 16 16zm-16-151.538h-248.593a16 16 0 0 0 0 32h248.593a16 16 0 0 0 0-32zm-248.593-239.076h480a16 16 0 0 0 0-32h-480a16 16 0 0 0 0 32zm496 322.845a16 16 0 0 1 -7.773 13.723l-144.673 86.724a16 16 0 0 1 -24.226-13.724v-173.447a16 16 0 0 1 24.226-13.724l144.672 86.724a16 16 0 0 1 7.774 13.724zm-47.12 0-97.552-58.478v116.956zm31.12-219.307h-480a16 16 0 0 0 0 32h480a16 16 0 0 0 0-32z" fill="#000000" style="fill: rgb(255, 255, 255);"></path></svg>