<!-- icon666.com - MILLIONS vector ICONS FREE --><svg viewBox="0 0 64 64" xmlns="http://www.w3.org/2000/svg"><g id="_21_Playlist" data-name="21 Playlist"><path d="m59 23h-34a2 2 0 0 0 -2 2v34a2 2 0 0 0 2 2h34a2 2 0 0 0 2-2v-34a2 2 0 0 0 -2-2zm0 36h-34v-34h34z" fill="#000000" style="fill: rgb(255, 255, 255);"></path><path d="m59 3h-54a2 2 0 0 0 -2 2v14a2 2 0 0 0 2 2h54a2 2 0 0 0 2-2v-14a2 2 0 0 0 -2-2zm0 16h-54v-14h54z" fill="#000000" style="fill: rgb(255, 255, 255);"></path><path d="m19 23h-14a2 2 0 0 0 -2 2v4a2 2 0 0 0 2 2h14a2 2 0 0 0 2-2v-4a2 2 0 0 0 -2-2zm0 6h-14v-4h14z" fill="#000000" style="fill: rgb(255, 255, 255);"></path><path d="m19 33h-14a2 2 0 0 0 -2 2v4a2 2 0 0 0 2 2h14a2 2 0 0 0 2-2v-4a2 2 0 0 0 -2-2zm0 6h-14v-4h14z" fill="#000000" style="fill: rgb(255, 255, 255);"></path><path d="m19 43h-14a2 2 0 0 0 -2 2v4a2 2 0 0 0 2 2h14a2 2 0 0 0 2-2v-4a2 2 0 0 0 -2-2zm0 6h-14v-4h14z" fill="#000000" style="fill: rgb(255, 255, 255);"></path><path d="m19 53h-14a2 2 0 0 0 -2 2v4a2 2 0 0 0 2 2h14a2 2 0 0 0 2-2v-4a2 2 0 0 0 -2-2zm0 6h-14v-4h14z" fill="#000000" style="fill: rgb(255, 255, 255);"></path><path d="m33.493 52.862a1 1 0 0 0 .993.012l18-10a1 1 0 0 0 0-1.748l-18-10a1 1 0 0 0 -1.486.874v20a1 1 0 0 0 .493.862zm1.507-19.162 14.941 8.3-14.941 8.3z" fill="#000000" style="fill: rgb(255, 255, 255);"></path><path d="m20 11h34a1 1 0 0 0 0-2h-34a1 1 0 0 0 0 2z" fill="#000000" style="fill: rgb(255, 255, 255);"></path><path d="m10 15h34a1 1 0 0 0 0-2h-34a1 1 0 0 0 0 2z" fill="#000000" style="fill: rgb(255, 255, 255);"></path></g></svg>