<!-- icon666.com - MILLIONS vector ICONS FREE --><svg id="Layer_1" enable-background="new 0 0 500 500" viewBox="0 0 500 500" xmlns="http://www.w3.org/2000/svg"><path d="m439.503 143.281c10.469-21.862 8.985-48.347-8.985-66.317l-7.481-7.481c-17.97-17.97-45.168-20.829-66.317-8.985-14.885 8.336-46.385-8.997-48.717-20.224-4.897-23.578-27.651-40.274-52.898-40.274l-12.855.653c-29.562 1.502-52.76 25.909-52.76 55.509 1.01 12.838-20.99 22.338-33.769 13.986-21.932-21.932-57.491-21.932-79.423 0l-6.151 6.151c-18.807 18.808-20.992 47.339-8.035 69.301 8.888 15.066.221 41.733-14.381 45.323-26.57 6.533-47.731 26.077-47.731 54.875v9.297c0 25.504 18.578 44.533 41.688 52.731 23.978 8.506 22.087 43.679 19.629 47.894-12.541 21.502-9.598 49.552 8.831 67.981l6.151 6.151c18.336 18.336 45.721 20.473 67.658 9.018 15.71-8.204 45.044 7.13 47.477 19.666 4.715 24.293 28.287 41.464 54.219 41.464h8.002c25.422 0 46.947-16.684 54.222-39.701 4.758-15.052 27.791-30.299 50.703-20.66 21.797 9.17 48.645 6.689 65.679-10.344l5.594-5.594c21.932-21.932 21.932-57.491 0-79.422-9.852-8.945 2.815-33.612 13.986-33.769 31.018 0 56.162-25.145 56.162-56.162v-9.615c0-25.827-17.145-48.863-41.275-54.166-16.226-3.567-24.476-36.317-19.223-47.286z" fill="#f86252" style="fill: rgb(0, 0, 0);"></path><ellipse cx="250" cy="250" fill="#fff" rx="81.933" ry="81.933" transform="matrix(.707 -.707 .707 .707 -103.553 250)"></ellipse></svg>