<!-- icon666.com - MILLIONS vector ICONS FREE --><svg version="1.1" id="Capa_1" xmlns="http://www.w3.org/2000/svg" xmlns:xlink="http://www.w3.org/1999/xlink" x="0px" y="0px" viewBox="0 0 50.302 50.302" style="enable-background:new 0 0 50.302 50.302;" xml:space="preserve"><g><g><path style="fill:#010002;" d="M25.151,37.427c1.399,0,2.534-1.134,2.534-2.533V13.219c0-2.332,1.302-2.852,2.908-1.16 l5.951,6.268c0.521,0.548,1.221,0.824,1.921,0.824c0.654,0,1.312-0.242,1.823-0.728c1.062-1.009,1.104-2.684,0.098-3.745 L27.297,0.897c-0.494-0.523-1.181-0.819-1.899-0.825c-0.719,0.001-1.406,0.279-1.909,0.792L9.948,14.646 c-1.026,1.042-1.011,2.72,0.031,3.745c1.043,1.024,2.72,1.009,3.744-0.033l5.934-6.038c1.635-1.663,2.96-1.121,2.96,1.211v21.363 C22.617,36.293,23.751,37.427,25.151,37.427z"></path><path style="fill:#010002;" d="M40.355,32.023h-7.096c-1.143,0-2.072,1.002-2.072,2.233v0.733c0,3.327-2.707,6.033-6.034,6.033 s-6.034-2.706-6.034-6.033v-0.733c0-1.231-0.988-2.233-2.203-2.233H9.945C4.462,32.023,0,36.106,0,41.126s4.462,9.103,9.945,9.103 h30.41c5.485,0,9.947-4.083,9.947-9.103S45.84,32.023,40.355,32.023z M40.355,47.228H9.945C6.115,47.228,3,44.491,3,41.125 s3.115-6.103,6.945-6.103h6.174c0.018,4.966,4.063,9,9.034,9s9.017-4.034,9.034-9h6.168c3.831,0,6.947,2.737,6.947,6.103 S44.186,47.228,40.355,47.228z"></path></g></g></svg>