<!-- icon666.com - MILLIONS vector ICONS FREE --><svg version="1.1" id="Layer_1" xmlns="http://www.w3.org/2000/svg" xmlns:xlink="http://www.w3.org/1999/xlink" x="0px" y="0px" viewBox="0 0 512 512" style="enable-background:new 0 0 512 512;" xml:space="preserve"><g><g><path d="M224.511,85.363l-113.319,87.168H50.087C22.469,172.531,0,195,0,222.618V289.4c0,27.618,22.469,50.087,50.087,50.087 h61.105l113.319,87.168c21.916,16.859,53.75,1.274,53.75-26.466V111.829C278.261,84.134,246.452,68.481,224.511,85.363z M100.174,306.096H50.087c-9.206,0-16.696-7.49-16.696-16.696v-66.783c0-9.206,7.49-16.696,16.696-16.696h50.087V306.096z M244.87,400.189l-111.304-85.619V197.447l111.304-85.619V400.189z"></path></g></g><g><g><path d="M438.649,78.916c-6.52-6.52-17.092-6.52-23.611,0c-6.52,6.52-6.52,17.091,0,23.611 c40.995,40.995,63.57,95.499,63.57,153.473s-22.576,112.479-63.57,153.473c-6.52,6.52-6.52,17.091,0,23.611 c6.519,6.52,17.091,6.52,23.611,0C485.95,385.783,512,322.894,512,256S485.95,126.217,438.649,78.916z"></path></g></g><g><g><path d="M391.427,126.139c-6.518-6.519-17.09-6.52-23.611,0c-6.52,6.52-6.52,17.091,0,23.611 c58.586,58.586,58.586,153.914,0,212.501c-6.52,6.52-6.52,17.091,0,23.611c6.519,6.519,17.091,6.52,23.611,0 C463.033,314.257,463.033,197.744,391.427,126.139z"></path></g></g><g><g><path d="M344.204,173.361c-6.519-6.52-17.091-6.52-23.611,0s-6.52,17.091,0,23.611c32.548,32.549,32.548,85.507,0,118.056 c-6.52,6.52-6.52,17.091,0,23.611c6.519,6.52,17.091,6.521,23.611,0C389.771,293.072,389.771,218.929,344.204,173.361z"></path></g></g></svg>